<?xml version="1.0" encoding="utf-8"?>
<!-- Generator: Adobe Illustrator 24.0.1, SVG Export Plug-In . SVG Version: 6.00 Build 0)  -->
<svg version="1.1" id="Layer_1" xmlns="http://www.w3.org/2000/svg" xmlns:xlink="http://www.w3.org/1999/xlink" x="0px" y="0px"
	 viewBox="0 0 1232.4 360" style="enable-background:new 0 0 1232.4 360;" xml:space="preserve">
<style type="text/css">
	.st0{fill:#293642;}
	.st1{fill:#0D98D2;}
	.st2{fill:#0E6F9D;}
	.st3{fill:#37B8E1;}
</style>
<path class="st0" d="M384,88.8h78c45.6,0,75.6,24,75.6,63.6l0,0c0,43.2-32.4,64.8-78,64.8h-25.2v51.6H384V88.8L384,88.8z M458.4,180
	c18,0,28.8-9.6,28.8-24l0,0c0-15.6-10.8-24-28.8-24h-24v48H458.4z"/>
<path class="st0" d="M568.8,88.8H654c27.6,0,46.8,7.2,58.8,19.2c10.8,10.8,15.6,24,15.6,42l0,0c0,27.6-14.4,45.6-37.2,55.2
	l43.2,63.6h-57.6l-36-55.2h-21.6v55.2h-50.4V88.8z M651.6,176.4c16.8,0,26.4-8.4,26.4-21.6l0,0c0-14.4-10.8-21.6-27.6-21.6H618v43.2
	C618,176.4,651.6,176.4,651.6,176.4z"/>
<rect x="766.8" y="88.8" class="st0" width="50.4" height="181.2"/>
<polygon class="st0" points="855.6,88.8 908.4,88.8 951.6,159.6 994.8,88.8 1047.6,88.8 1047.6,271.2 998.4,271.2 998.4,166.8 
	951.6,237.6 950.4,237.6 904.8,166.8 904.8,271.2 855.6,271.2 "/>
<polygon class="st0" points="1086,88.8 1231.2,88.8 1231.2,132 1135.2,132 1135.2,159.6 1222.8,159.6 1222.8,199.2 1135.2,199.2 
	1135.2,228 1232.4,228 1232.4,271.2 1086,271.2 "/>
<polygon class="st1" points="253.2,123.6 253.2,123.6 253.2,236.4 156,290.4 156,360 312,271.2 312,88.8 "/>
<polygon class="st2" points="58.8,304.8 0,271.2 0,88.8 58.8,123.6 "/>
<path class="st0" d="M384,88.8h78c45.6,0,75.6,24,75.6,63.6l0,0c0,43.2-32.4,64.8-78,64.8h-25.2v51.6H384V88.8L384,88.8z M458.4,180
	c18,0,28.8-9.6,28.8-24l0,0c0-15.6-10.8-24-28.8-24h-24v48H458.4z"/>
<path class="st0" d="M568.8,88.8H654c27.6,0,46.8,7.2,58.8,19.2c10.8,10.8,15.6,24,15.6,42l0,0c0,27.6-14.4,45.6-37.2,55.2
	l43.2,63.6h-57.6l-36-55.2h-21.6v55.2h-50.4V88.8z M651.6,176.4c16.8,0,26.4-8.4,26.4-21.6l0,0c0-14.4-10.8-21.6-27.6-21.6H618v43.2
	C618,176.4,651.6,176.4,651.6,176.4z"/>
<rect x="766.8" y="88.8" class="st0" width="50.4" height="181.2"/>
<polygon class="st0" points="855.6,88.8 908.4,88.8 951.6,159.6 994.8,88.8 1047.6,88.8 1047.6,271.2 998.4,271.2 998.4,166.8 
	951.6,237.6 950.4,237.6 904.8,166.8 904.8,271.2 855.6,271.2 "/>
<polygon class="st0" points="1086,88.8 1231.2,88.8 1231.2,132 1135.2,132 1135.2,159.6 1222.8,159.6 1222.8,199.2 1135.2,199.2 
	1135.2,228 1232.4,228 1232.4,271.2 1086,271.2 "/>
<polygon class="st3" points="156,67.2 253.2,123.6 312,88.8 156,0 0,88.8 58.8,123.6 "/>
<polygon class="st1" points="253.2,123.6 253.2,123.6 253.2,236.4 156,290.4 156,360 312,271.2 312,88.8 "/>
<polygon class="st2" points="58.8,304.8 0,271.2 0,88.8 58.8,123.6 "/>
<g>
	<path class="st0" d="M404,323.6h-7.3v19.7h-13.4v-55.7h21.9c6.6,0,11.8,1.5,15.5,4.4c3.7,2.9,5.6,7.1,5.6,12.4
		c0,3.9-0.8,7.1-2.4,9.6s-4,4.6-7.4,6.2l11.6,22.5v0.6h-14.4L404,323.6z M396.7,313.2h8.5c2.5,0,4.5-0.7,5.8-2
		c1.3-1.3,1.9-3.2,1.9-5.6c0-2.4-0.7-4.3-2-5.7s-3.2-2.1-5.7-2.1h-8.5V313.2z"/>
	<path class="st0" d="M453.8,344c-6.3,0-11.5-1.9-15.4-5.7s-5.9-8.7-5.9-14.8v-1.1c0-4.2,0.8-8,2.4-11.2c1.6-3.2,3.9-5.7,6.9-7.5
		c3-1.8,6.6-2.7,10.7-2.7c5.8,0,10.4,1.8,13.8,5.4c3.4,3.6,5,8.6,5,15.1v5h-25.6c0.5,2.3,1.5,4.1,3,5.5c1.6,1.3,3.6,2,6,2
		c4.1,0,7.3-1.4,9.6-4.3l5.9,7c-1.6,2.2-3.9,4-6.8,5.3C460.3,343.4,457.2,344,453.8,344z M452.3,311.1c-3.8,0-6,2.5-6.7,7.5h13v-1
		c0.1-2.1-0.5-3.7-1.6-4.8C455.9,311.6,454.4,311.1,452.3,311.1z"/>
	<path class="st0" d="M491.4,291.6v10.3h6.8v8.9h-6.8v18.9c0,1.6,0.3,2.6,0.8,3.3c0.6,0.6,1.7,0.9,3.3,0.9c1.3,0,2.3-0.1,3.2-0.2
		v9.2c-2.3,0.7-4.7,1.1-7.3,1.1c-4.4,0-7.7-1-9.8-3.1c-2.1-2.1-3.2-5.3-3.2-9.5v-20.5h-5.3v-8.9h5.3v-10.3H491.4z"/>
	<path class="st0" d="M526.6,343.3c-0.5-0.8-0.9-2.1-1.2-3.7c-2.4,3-5.7,4.5-9.9,4.5c-3.9,0-7.2-1.2-9.9-3.5
		c-2.7-2.4-4.1-5.3-4.1-8.9c0-4.5,1.7-7.9,5-10.2c3.3-2.3,8.1-3.4,14.5-3.4h4v-2.2c0-3.8-1.6-5.7-4.9-5.7c-3.1,0-4.6,1.5-4.6,4.5
		h-12.9c0-4,1.7-7.2,5.1-9.7c3.4-2.5,7.7-3.7,13-3.7s9.4,1.3,12.5,3.9c3.1,2.6,4.6,6.1,4.7,10.6v18.3c0.1,3.8,0.6,6.7,1.8,8.7v0.7
		H526.6z M518.5,334.8c1.6,0,2.9-0.3,4-1c1.1-0.7,1.8-1.5,2.3-2.3v-6.6h-3.7c-4.5,0-6.7,2-6.7,6c0,1.2,0.4,2.1,1.2,2.8
		C516.3,334.5,517.3,334.8,518.5,334.8z"/>
	<path class="st0" d="M544.8,291.2c0-1.8,0.7-3.3,2-4.5c1.3-1.2,3-1.8,5.2-1.8c2.1,0,3.8,0.6,5.2,1.8c1.3,1.2,2,2.7,2,4.5
		s-0.7,3.3-2,4.5c-1.3,1.2-3,1.8-5.2,1.8c-2.1,0-3.8-0.6-5.2-1.8C545.4,294.5,544.8,293,544.8,291.2z M558.5,343.3h-12.9v-41.4h12.9
		V343.3z"/>
	<path class="st0" d="M580,343.3h-12.9v-58.7H580V343.3z"/>
	<path class="st0" d="M615.7,313.9c-1.5-2.1-2.7-4.2-3.5-6.1c-0.9-1.9-1.3-3.9-1.3-6c0-4.5,1.5-8.1,4.4-10.9
		c2.9-2.8,6.7-4.1,11.4-4.1c4.2,0,7.7,1.3,10.4,3.8c2.8,2.6,4.1,5.7,4.1,9.5c0,4.7-2.6,8.9-7.8,12.6l-2.9,2l8.6,9.8
		c1.4-2.8,2.1-5.9,2.1-9.2H652c0,7.5-1.7,13.6-5.2,18.1l8.5,9.8h-14.4l-2.6-2.9c-2.1,1.3-4.3,2.2-6.6,2.8c-2.2,0.6-4.7,0.9-7.6,0.9
		c-5.5,0-9.9-1.4-13.2-4.3c-3.3-2.9-5-6.7-5-11.4c0-2.6,0.7-4.9,2-7c1.3-2.1,3.9-4.5,7.7-7.3L615.7,313.9z M625,334.1
		c2.2,0,4.4-0.5,6.4-1.6l-10-11.4l-0.3,0.2c-1.5,1.8-2.2,3.8-2.2,6c0,1.9,0.6,3.4,1.8,4.7C621.8,333.5,623.3,334.1,625,334.1z
		 M622,301.6c0,1.8,1,4,2.9,6.5l2.6-1.6c1.2-0.8,2-1.6,2.6-2.4c0.5-0.8,0.8-1.8,0.8-3.1c0-1.2-0.4-2.2-1.2-3.1
		c-0.8-0.9-1.8-1.3-3-1.3c-1.4,0-2.5,0.5-3.4,1.4S622,300.2,622,301.6z"/>
	<path class="st0" d="M721.7,297.9H705v45.3h-13.4v-45.3h-16.4v-10.4h46.5V297.9z"/>
	<path class="st0" d="M749.3,313.5l-4.2-0.3c-4.1,0-6.7,1.3-7.8,3.8v26.2h-12.9v-41.4h12.1l0.4,5.3c2.2-4.1,5.2-6.1,9.1-6.1
		c1.4,0,2.6,0.2,3.6,0.5L749.3,313.5z"/>
	<path class="st0" d="M776.1,343.3c-0.5-0.8-0.9-2.1-1.2-3.7c-2.4,3-5.7,4.5-9.9,4.5c-3.9,0-7.2-1.2-9.9-3.5
		c-2.7-2.4-4.1-5.3-4.1-8.9c0-4.5,1.7-7.9,5-10.2c3.3-2.3,8.1-3.4,14.5-3.4h4v-2.2c0-3.8-1.6-5.7-4.9-5.7c-3.1,0-4.6,1.5-4.6,4.5
		h-12.9c0-4,1.7-7.2,5.1-9.7c3.4-2.5,7.7-3.7,13-3.7s9.4,1.3,12.5,3.9c3.1,2.6,4.6,6.1,4.7,10.6v18.3c0.1,3.8,0.6,6.7,1.8,8.7v0.7
		H776.1z M768.1,334.8c1.6,0,2.9-0.3,4-1c1.1-0.7,1.8-1.5,2.3-2.3v-6.6h-3.7c-4.5,0-6.7,2-6.7,6c0,1.2,0.4,2.1,1.2,2.8
		C765.8,334.5,766.8,334.8,768.1,334.8z"/>
	<path class="st0" d="M792.8,322.3c0-6.6,1.4-11.7,4.2-15.5s6.8-5.7,11.9-5.7c3.7,0,6.8,1.5,9.3,4.4v-21h12.9v58.7h-11.6l-0.6-4.4
		c-2.7,3.5-6,5.2-10.1,5.2c-4.9,0-8.8-1.9-11.7-5.7C794.2,334.6,792.8,329.2,792.8,322.3z M805.7,323.1c0,7.3,2.1,11,6.4,11
		c2.9,0,4.9-1.2,6.1-3.6v-15.8c-1.2-2.4-3.2-3.7-6-3.7c-4,0-6.1,3.2-6.5,9.6L805.7,323.1z"/>
	<path class="st0" d="M858.5,344c-6.3,0-11.5-1.9-15.4-5.7c-3.9-3.8-5.9-8.7-5.9-14.8v-1.1c0-4.2,0.8-8,2.4-11.2
		c1.6-3.2,3.9-5.7,6.9-7.5c3-1.8,6.6-2.7,10.7-2.7c5.8,0,10.4,1.8,13.8,5.4c3.4,3.6,5,8.6,5,15.1v5h-25.6c0.5,2.3,1.5,4.1,3,5.5
		c1.6,1.3,3.6,2,6,2c4.1,0,7.3-1.4,9.6-4.3l5.9,7c-1.6,2.2-3.9,4-6.8,5.3C865,343.4,861.9,344,858.5,344z M857,311.1
		c-3.8,0-6,2.5-6.7,7.5h13v-1c0.1-2.1-0.5-3.7-1.6-4.8C860.6,311.6,859.1,311.1,857,311.1z"/>
	<path class="st0" d="M929.9,328.5c0-2-0.7-3.5-2.1-4.6c-1.4-1.1-3.8-2.2-7.3-3.4s-6.3-2.3-8.6-3.4c-7.2-3.5-10.8-8.4-10.8-14.6
		c0-3.1,0.9-5.8,2.7-8.2c1.8-2.4,4.3-4.2,7.6-5.5c3.3-1.3,7-2,11.1-2c4,0,7.6,0.7,10.8,2.1c3.2,1.4,5.6,3.5,7.4,6.1
		c1.8,2.6,2.6,5.7,2.6,9H930c0-2.3-0.7-4-2.1-5.3c-1.4-1.2-3.3-1.9-5.6-1.9c-2.4,0-4.3,0.5-5.7,1.6s-2.1,2.4-2.1,4
		c0,1.4,0.8,2.7,2.3,3.9c1.5,1.2,4.2,2.4,8.1,3.6c3.8,1.2,7,2.6,9.5,4c6,3.5,9,8.2,9,14.3c0,4.9-1.8,8.7-5.5,11.5
		c-3.7,2.8-8.7,4.2-15.1,4.2c-4.5,0-8.6-0.8-12.3-2.4c-3.7-1.6-6.4-3.8-8.3-6.7c-1.8-2.8-2.8-6.1-2.8-9.7h13.5c0,3,0.8,5.2,2.3,6.6
		c1.5,1.4,4,2.1,7.5,2.1c2.2,0,4-0.5,5.3-1.4S929.9,330.2,929.9,328.5z"/>
	<path class="st0" d="M948,322.2c0-4.1,0.8-7.8,2.4-11c1.6-3.2,3.9-5.7,6.9-7.4c3-1.7,6.5-2.6,10.6-2.6c6.2,0,11.1,1.9,14.6,5.8
		s5.4,9.1,5.4,15.7v0.5c0,6.5-1.8,11.6-5.4,15.4s-8.4,5.7-14.6,5.7c-5.9,0-10.6-1.8-14.2-5.3c-3.6-3.5-5.5-8.3-5.8-14.4L948,322.2z
		 M960.9,323c0,3.8,0.6,6.6,1.8,8.4c1.2,1.8,3,2.7,5.3,2.7c4.6,0,6.9-3.5,7-10.6v-1.3c0-7.4-2.4-11.1-7.1-11.1c-4.3,0-6.6,3.2-7,9.6
		L960.9,323z"/>
	<path class="st0" d="M1007.2,343.3h-12.9v-58.7h12.9V343.3z"/>
	<path class="st0" d="M1039.8,338.8c-2.7,3.5-6.4,5.2-11.1,5.2c-4.5,0-8-1.3-10.3-4s-3.5-6.4-3.5-11.4v-26.8h12.9v26.9
		c0,3.5,1.7,5.3,5.2,5.3c3,0,5.1-1.1,6.3-3.2v-29h13v41.4h-12.1L1039.8,338.8z"/>
	<path class="st0" d="M1074.3,291.6v10.3h6.8v8.9h-6.8v18.9c0,1.6,0.3,2.6,0.8,3.3c0.6,0.6,1.7,0.9,3.3,0.9c1.3,0,2.3-0.1,3.2-0.2
		v9.2c-2.3,0.7-4.7,1.1-7.3,1.1c-4.4,0-7.7-1-9.8-3.1c-2.1-2.1-3.2-5.3-3.2-9.5v-20.5h-5.3v-8.9h5.3v-10.3H1074.3z"/>
	<path class="st0" d="M1086.1,291.2c0-1.8,0.7-3.3,2-4.5c1.3-1.2,3-1.8,5.2-1.8s3.8,0.6,5.2,1.8c1.3,1.2,2,2.7,2,4.5s-0.7,3.3-2,4.5
		c-1.3,1.2-3,1.8-5.2,1.8s-3.8-0.6-5.2-1.8C1086.8,294.5,1086.1,293,1086.1,291.2z M1099.8,343.3h-12.9v-41.4h12.9V343.3z"/>
	<path class="st0" d="M1106.1,322.2c0-4.1,0.8-7.8,2.4-11c1.6-3.2,3.9-5.7,6.9-7.4c3-1.7,6.5-2.6,10.6-2.6c6.2,0,11.1,1.9,14.6,5.8
		s5.4,9.1,5.4,15.7v0.5c0,6.5-1.8,11.6-5.4,15.4s-8.4,5.7-14.6,5.7c-5.9,0-10.6-1.8-14.2-5.3c-3.6-3.5-5.5-8.3-5.8-14.4
		L1106.1,322.2z M1119,323c0,3.8,0.6,6.6,1.8,8.4c1.2,1.8,3,2.7,5.3,2.7c4.6,0,6.9-3.5,7-10.6v-1.3c0-7.4-2.4-11.1-7.1-11.1
		c-4.3,0-6.6,3.2-7,9.6L1119,323z"/>
	<path class="st0" d="M1163.5,301.9l0.4,4.9c2.9-3.7,6.8-5.6,11.8-5.6c4.3,0,7.5,1.3,9.7,3.9c2.1,2.6,3.2,6.5,3.3,11.6v26.7h-12.9
		v-26.1c0-2.1-0.4-3.6-1.3-4.6c-0.8-1-2.4-1.5-4.6-1.5c-2.5,0-4.4,1-5.6,3v29.2h-12.9v-41.4H1163.5z"/>
	<path class="st0" d="M1217.5,331.6c0-1.1-0.6-2-1.7-2.6c-1.1-0.7-3.3-1.4-6.5-2.1c-3.2-0.7-5.9-1.7-8-2.8s-3.7-2.6-4.8-4.2
		c-1.1-1.7-1.6-3.6-1.6-5.7c0-3.8,1.6-6.9,4.7-9.4c3.1-2.5,7.2-3.7,12.3-3.7c5.5,0,9.8,1.2,13.2,3.7c3.3,2.5,5,5.7,5,9.8h-12.9
		c0-3.3-1.7-5-5.2-5c-1.4,0-2.5,0.4-3.4,1.1c-0.9,0.8-1.4,1.7-1.4,2.8c0,1.1,0.6,2.1,1.7,2.8c1.1,0.7,2.9,1.3,5.4,1.8
		c2.5,0.5,4.6,1,6.5,1.6c6.2,2.1,9.3,6,9.3,11.5c0,3.8-1.7,6.8-5,9.2c-3.4,2.4-7.7,3.6-13,3.6c-3.5,0-6.7-0.6-9.5-1.9
		c-2.8-1.3-4.9-3-6.5-5.2c-1.6-2.2-2.3-4.5-2.3-6.9h12c0.1,1.9,0.7,3.3,1.9,4.2c1.2,0.9,2.8,1.3,4.7,1.3c1.8,0,3.1-0.4,4-1.1
		C1217.1,333.7,1217.5,332.8,1217.5,331.6z"/>
</g>
</svg>
